<?xml version="1.0" encoding="utf-8"?><svg xmlns="http://www.w3.org/2000/svg" viewBox="0 0 67 66"><path fill="#6ebf4c" d="M19.2 8.8c4.4-2.4 9.4-3.7 14.4-3.6 5-.1 9.9 1.2 14.3 3.6 3.8 2.1 7.1 5.2 9.4 8.9h5.4l-.6-1.2C59.3 11.7 55.2 7.7 50.4 5c-5.2-2.7-11-4.1-16.8-4C27.7.9 22 2.4 16.8 5.2 12 7.9 7.9 11.9 5.1 16.7c-.2.4-.4.7-.6 1.1h5.2c2.4-3.8 5.6-6.8 9.5-9z"/><path fill="#575195" d="M39.6 36.9l3 4.2h17.9c-.6 2.2-1.5 4.2-2.6 6.2-2.4 4.2-5.9 7.7-10.1 10-4.4 2.4-9.3 3.6-14.3 3.5-5 .1-10-1.2-14.4-3.6-4.2-2.4-7.7-5.8-10.1-10-1.8-3.2-3-6.7-3.4-10.3H1C2 47 7.9 56 16.8 60.9c5.1 2.8 10.9 4.3 16.8 4.2 5.8.1 11.6-1.3 16.7-4.1 8.9-4.9 14.8-13.9 15.8-24H39.6z"/></svg>