<?xml version="1.0" encoding="utf-8"?><svg xmlns="http://www.w3.org/2000/svg" viewBox="0 0 422 66"><path d="M389.7 60.7v-20h27v-3.8h-31.5v27.6H421v-3.8zm-4.5-46.9h34.7v4h-34.7zM367 40a76.88 76.88 0 0 0-9-2.7c-2.7-.6-5.3-1.3-7.8-2.2-1.8-.6-3.4-1.6-4.7-3a7 7 0 0 1-1.9-5.2c0-2.8 1.3-5.3 3.5-6.9 2.3-1.8 5.8-2.7 10.4-2.7 5-.2 10 1.4 14 4.3l1.8-3.7c-2.1-1.6-4.5-2.7-7.1-3.4a31.33 31.33 0 0 0-8.6-1.2c-5.9 0-10.5 1.3-13.7 3.9a11.95 11.95 0 0 0-4.8 9.9c-.1 2.7.8 5.4 2.5 7.4 1.6 1.8 3.5 3.2 5.8 4.1 3 1.1 6 2 9.1 2.7a94.49 94.49 0 0 1 7.6 2.1c1.8.6 3.4 1.6 4.8 3 1.3 1.4 2 3.3 1.9 5.2.1 2.7-1.2 5.3-3.5 6.8-2.4 1.8-5.9 2.6-10.7 2.6-3.3 0-6.5-.6-9.6-1.7-2.8-.9-5.3-2.5-7.4-4.5l-2.1 3.4c2.3 2.2 5.1 3.9 8.1 4.9 3.5 1.3 7.1 1.9 10.8 1.9 6.1 0 10.7-1.3 13.9-3.8 3.1-2.3 5-6.1 4.9-10 .1-2.6-.7-5.2-2.4-7.2-1.6-1.8-3.6-3.2-5.8-4zm-38.5 1.1a16.26 16.26 0 0 0 3.1-10c0-5.4-1.8-9.6-5.5-12.7-3.7-3-8.8-4.6-15.2-4.6H292v50.7h4.5V48.1h14.3c1.5 0 3-.1 4.5-.3l12.1 16.7h5L319.6 47c3.5-1 6.6-3.1 8.9-5.9zm-17.9 3.3h-14.1V17.8h14.1c5.3 0 9.4 1.1 12.2 3.4s4.2 5.6 4.2 9.9c.2 3.8-1.3 7.4-4.2 9.9-2.8 2.2-6.8 3.4-12.2 3.4zm-35-1.5c0 6-1.4 10.5-4.2 13.5s-6.8 4.5-12.1 4.5-9.3-1.5-12.1-4.6c-2.8-3-4.2-7.5-4.2-13.5v-29h-4.5v29.3c0 7.1 1.8 12.5 5.5 16.3 3.7 3.7 8.8 5.6 15.3 5.6s11.6-1.9 15.3-5.6c3.7-3.8 5.5-9.2 5.5-16.3V13.8h-4.5v29.1zM222 56.3L179.2 1.5h-3.9v63h4.6V9.7l42.9 54.8h3.8v-63H222z" fill="#6ebf4c"/><path d="M157.9 18.4c-3.7-3-8.8-4.5-15.3-4.6h-18.7v50.7h4.5V48.3h14.2c6.5 0 11.6-1.5 15.3-4.6 3.7-3 5.5-7.3 5.5-12.7s-1.8-9.6-5.5-12.6zm-3.2 22.5c-2.8 2.3-6.8 3.5-12.2 3.5h-14.1V17.8h14.1c5.3 0 9.4 1.1 12.2 3.4s4.2 5.6 4.2 9.9c.2 3.7-1.4 7.3-4.2 9.8zM89.8 13.8L66.3 64.5h4.6l6.4-14.1h29.5l6.4 14.1h4.7L94.3 13.8h-4.5zM79.1 46.7l13-28.3L105 46.7H79.1z" fill="#575195"/><path fill="#6ebf4c" d="M19.2 8.8c4.4-2.4 9.4-3.7 14.4-3.6 5-.1 9.9 1.2 14.3 3.6 3.8 2.1 7.1 5.2 9.4 8.9h5.4l-.6-1.2C59.3 11.7 55.2 7.7 50.4 5c-5.2-2.7-11-4.1-16.8-4C27.7.9 22 2.4 16.8 5.2 12 7.9 7.9 11.9 5.1 16.7c-.2.4-.4.7-.6 1.1h5.2c2.4-3.8 5.6-6.8 9.5-9z"/><path fill="#575195" d="M39.6 36.9l3 4.2h17.9c-.6 2.2-1.5 4.2-2.6 6.2-2.4 4.2-5.9 7.7-10.1 10-4.4 2.4-9.3 3.6-14.3 3.5-5 .1-10-1.2-14.4-3.6-4.2-2.4-7.7-5.8-10.1-10-1.8-3.2-3-6.7-3.4-10.3H1C2 47 7.9 56 16.8 60.9c5.1 2.8 10.9 4.3 16.8 4.2 5.8.1 11.6-1.3 16.7-4.1 8.9-4.9 14.8-13.9 15.8-24H39.6z"/></svg>