<?xml version="1.0" encoding="utf-8"?><svg xmlns="http://www.w3.org/2000/svg" viewBox="0 0 422 66" fill="#fff"><path d="M389.69,60.66V40.76h27V36.88H385.19V64.54H421V60.66Zm-4.5-46.86h34.74v4H385.19ZM367,40a78.64,78.64,0,0,0-9-2.68,69.16,69.16,0,0,1-7.84-2.21,13,13,0,0,1-4.72-3A7,7,0,0,1,343.46,27,8.37,8.37,0,0,1,347,20c2.33-1.81,5.82-2.71,10.43-2.71a22.72,22.72,0,0,1,14,4.33l1.8-3.69a21.11,21.11,0,0,0-7.11-3.43,31.86,31.86,0,0,0-8.63-1.18q-8.92,0-13.75,3.89a12.16,12.16,0,0,0-4.82,9.91,10.75,10.75,0,0,0,2.5,7.43,14.73,14.73,0,0,0,5.77,4.06,75.61,75.61,0,0,0,9.09,2.65,67,67,0,0,1,7.64,2.13,12.7,12.7,0,0,1,4.82,3,7,7,0,0,1,1.93,5.18,8.12,8.12,0,0,1-3.48,6.84Q363.63,61,356.52,61a27,27,0,0,1-9.62-1.71,20.11,20.11,0,0,1-7.37-4.51l-2.07,3.43a22,22,0,0,0,8.14,4.87A31.09,31.09,0,0,0,356.44,65q9.09,0,13.94-3.83a12.1,12.1,0,0,0,4.86-10A10.53,10.53,0,0,0,372.86,44,14.4,14.4,0,0,0,367,40Zm-38.52,1.08a16.15,16.15,0,0,0,3.1-10q0-8.1-5.54-12.66t-15.24-4.56H292V64.54h4.5V48.14h14.31a35.49,35.49,0,0,0,4.49-.28l12.06,16.68h5L319.58,47A17.09,17.09,0,0,0,328.46,41.06Zm-17.87,3.29H296.47V17.78h14.12q8,0,12.2,3.43T327,31.06a12.13,12.13,0,0,1-4.19,9.86q-4.17,3.45-12.19,3.44Zm-35-1.44q0,9-4.18,13.52t-12.12,4.5q-7.92,0-12.13-4.55T243,42.91V13.8H238.5V43.08q0,10.65,5.53,16.27T259.36,65q9.83,0,15.31-5.64t5.5-16.27V13.8h-4.5ZM222,56.25,179.17,1.45H175.3V64.54h4.58V9.74l42.91,54.8h3.79V1.45H222v54.8Zm-64.1-37.9q-5.55-4.55-15.24-4.55H123.91V64.54h4.5V48.27h14.25q9.71,0,15.24-4.56T163.42,31Q163.42,22.91,157.9,18.35Zm-3.25,22.53q-4.17,3.48-12.18,3.47H128.35V17.78h14.12q8,0,12.18,3.43t4.19,9.85a12.1,12.1,0,0,1-4.19,9.83ZM89.8,13.8,66.27,64.54h4.6l6.44-14.06h29.45l6.4,14.06h4.67L94.26,13.8ZM79.06,46.69,92,18.4,105,46.69ZM19.18,8.84A28.86,28.86,0,0,1,33.57,5.23a28.61,28.61,0,0,1,14.3,3.61,26.49,26.49,0,0,1,9.45,8.92h5.37l-.63-1.16A30.43,30.43,0,0,0,50.33,5.15,33.82,33.82,0,0,0,33.57,1,33.71,33.71,0,0,0,16.83,5.2,30.67,30.67,0,0,0,5.1,16.69l-.59,1.07h5.2A26.3,26.3,0,0,1,19.18,8.84Zm20.42,28,3,4.18H60.51A27,27,0,0,1,47.83,57.23a28.62,28.62,0,0,1-14.26,3.53,28.92,28.92,0,0,1-14.35-3.61,26.51,26.51,0,0,1-10.12-10A26.84,26.84,0,0,1,5.65,36.83H1a31,31,0,0,0,15.79,24A33.73,33.73,0,0,0,33.57,65a34,34,0,0,0,16.74-4.15,30.84,30.84,0,0,0,15.75-24Z" /></svg>